<?xml version="1.0" encoding="UTF-8"?>
<svg xmlns="http://www.w3.org/2000/svg" xmlns:xlink="http://www.w3.org/1999/xlink" width="70px" height="81px" viewBox="0 0 70 81" version="1.1">
    <!-- Generator: Sketch 51.1 (57501) - http://www.bohemiancoding.com/sketch -->
    
    
    <defs>
        <linearGradient x1="52.7406297%" y1="100%" x2="52.1336459%" y2="2.63031612%" id="linearGradient-1">
            <stop stop-color="#FFD633" offset="0%"/>
            <stop stop-color="#FFE680" offset="100%"/>
        </linearGradient>
        <ellipse id="path-2" cx="23.7555638" cy="10.0612506" rx="21.0191305" ry="4.784114"/>
        
    </defs>
    <g id="Artboard" stroke="none" stroke-width="1" fill="none" fill-rule="evenodd">
        <g id="Group-Copy" transform="translate(4.000000, 1.000000)">
            <g id="Mask" transform="translate(23.755564, 10.061251) rotate(-15.000000) translate(-23.755564, -10.061251) ">
                <use fill="black" fill-opacity="1" filter="url(#filter-3)" xlink:href="#path-2"/>
                <ellipse stroke="url(#linearGradient-1)" stroke-width="3" stroke-linejoin="square" cx="23.7555638" cy="10.0612506" rx="19.5191305" ry="3.284114"/>
            </g>
        </g>
        <g id="Page-1-Copy-2" transform="translate(1.000000, 38.000000)">
            <path d="M50.5995265,35.4235 C50.5995265,35.4235 49.1829971,33.7545 47.6518059,33.8015 C47.6518059,33.8015 48.0526147,33.7175 48.4077618,33.3565 C48.4077618,33.3565 48.0911735,32.7265 45.3991588,32.3615 C45.3991588,32.3615 45.9562324,32.0865 46.0252324,31.8815 C46.0252324,31.8815 44.37735,31.1955 43.1241882,31.6535 C43.1241882,31.6535 43.1241882,31.3565 43.4488941,31.1275 C43.4488941,31.1275 40.4088353,31.3455 38.9933206,33.0455 C38.9933206,33.0455 41.9653941,35.3825 46.0516147,35.9755 C46.0516147,35.9755 43.0572176,36.7545 38.6229529,34.0345 C38.6229529,34.0345 38.1612618,37.8095 41.5503794,38.9965 C41.5503794,38.9965 41.2713353,38.5165 41.2946735,37.9445 C41.2946735,37.9445 42.9892324,39.4535 44.4514235,39.1325 C44.4514235,39.1325 44.0567029,38.7435 43.9410265,38.4465 C43.9410265,38.4465 45.9826147,38.9025 48.3499235,38.3755 C48.3499235,38.3755 47.8851882,38.2385 47.5838206,37.7355 C47.5838206,37.7355 49.4863941,37.5745 50.5995265,35.4235" id="Fill-1" fill="#DC9FFF"/>
            <path d="M50.5995265,35.4235 C50.5995265,35.4235 49.1829971,33.7545 47.6518059,33.8015 C47.6518059,33.8015 48.0526147,33.7175 48.4077618,33.3565 C48.4077618,33.3565 48.0911735,32.7265 45.3991588,32.3615 C45.3991588,32.3615 45.9562324,32.0865 46.0252324,31.8815 C46.0252324,31.8815 44.37735,31.1955 43.1241882,31.6535 C43.1241882,31.6535 43.1241882,31.3565 43.4488941,31.1275 C43.4488941,31.1275 40.4088353,31.3455 38.9933206,33.0455 C38.9933206,33.0455 41.9653941,35.3825 46.0516147,35.9755 C46.0516147,35.9755 43.0572176,36.7545 38.6229529,34.0345 C38.6229529,34.0345 38.1612618,37.8095 41.5503794,38.9965 C41.5503794,38.9965 41.2713353,38.5165 41.2946735,37.9445 C41.2946735,37.9445 42.9892324,39.4535 44.4514235,39.1325 C44.4514235,39.1325 44.0567029,38.7435 43.9410265,38.4465 C43.9410265,38.4465 45.9826147,38.9025 48.3499235,38.3755 C48.3499235,38.3755 47.8851882,38.2385 47.5838206,37.7355 C47.5838206,37.7355 49.4863941,37.5745 50.5995265,35.4235 Z" id="Stroke-3" stroke="#9D33DB" stroke-width="0.5" stroke-linejoin="round"/>
            <path d="M46.3048853,40.1388 C46.3048853,40.1388 45.56415,37.9068 44.0086059,37.3478 C44.0086059,37.3478 44.4449294,37.4238 44.9482235,37.2008 C44.9482235,37.2008 44.8873412,36.4438 42.3363706,35.0158 C42.3363706,35.0158 43.0060765,34.9598 43.1592971,34.7808 C43.1592971,34.7808 41.7853853,33.4438 40.3424735,33.4078 C40.3424735,33.4078 40.4632235,33.1098 40.8822971,33.0088 C40.8822971,33.0088 37.7448265,32.0268 35.6362676,33.1718 C35.6362676,33.1718 37.6656794,36.6888 41.5205471,38.8958 C41.5205471,38.8958 38.2034735,38.4948 34.8630618,34.0178 C34.8630618,34.0178 32.8651059,37.6198 35.7803559,40.1488 C35.7803559,40.1488 35.6961353,39.5568 35.9508265,38.9928 C35.9508265,38.9928 37.0365618,41.1748 38.6326941,41.4298 C38.6326941,41.4298 38.3952529,40.8848 38.4003265,40.5398 C38.4003265,40.5398 40.2623118,41.8048 42.8498118,42.2098 C42.8498118,42.2098 42.4398706,41.8888 42.3424588,41.2658 C42.3424588,41.2658 44.3150471,41.8558 46.3048853,40.1388" id="Fill-5" fill="#DC9FFF"/>
            <path d="M46.3048853,40.1388 C46.3048853,40.1388 45.56415,37.9068 44.0086059,37.3478 C44.0086059,37.3478 44.4449294,37.4238 44.9482235,37.2008 C44.9482235,37.2008 44.8873412,36.4438 42.3363706,35.0158 C42.3363706,35.0158 43.0060765,34.9598 43.1592971,34.7808 C43.1592971,34.7808 41.7853853,33.4438 40.3424735,33.4078 C40.3424735,33.4078 40.4632235,33.1098 40.8822971,33.0088 C40.8822971,33.0088 37.7448265,32.0268 35.6362676,33.1718 C35.6362676,33.1718 37.6656794,36.6888 41.5205471,38.8958 C41.5205471,38.8958 38.2034735,38.4948 34.8630618,34.0178 C34.8630618,34.0178 32.8651059,37.6198 35.7803559,40.1488 C35.7803559,40.1488 35.6961353,39.5568 35.9508265,38.9928 C35.9508265,38.9928 37.0365618,41.1748 38.6326941,41.4298 C38.6326941,41.4298 38.3952529,40.8848 38.4003265,40.5398 C38.4003265,40.5398 40.2623118,41.8048 42.8498118,42.2098 C42.8498118,42.2098 42.4398706,41.8888 42.3424588,41.2658 C42.3424588,41.2658 44.3150471,41.8558 46.3048853,40.1388 Z" id="Stroke-7" stroke="#9D33DB" stroke-width="0.5" stroke-linejoin="round"/>
            <path d="M17.7891132,35.4235 C17.7891132,35.4235 19.2056426,33.7545 20.7378485,33.8015 C20.7378485,33.8015 20.336025,33.7175 19.9818926,33.3565 C19.9818926,33.3565 20.2984809,32.7265 22.9904956,32.3615 C22.9904956,32.3615 22.4334221,32.0865 22.3644221,31.8815 C22.3644221,31.8815 24.0123044,31.1955 25.2644515,31.6535 C25.2644515,31.6535 25.2654662,31.3565 24.9407603,31.1275 C24.9407603,31.1275 27.9808191,31.3455 29.3953191,33.0455 C29.3953191,33.0455 26.4232456,35.3825 22.3380397,35.9755 C22.3380397,35.9755 25.3324368,36.7545 29.7667015,34.0345 C29.7667015,34.0345 30.2283926,37.8095 26.839275,38.9965 C26.839275,38.9965 27.1173044,38.5165 27.0949809,37.9445 C27.0949809,37.9445 25.3994074,39.4535 23.9382309,39.1325 C23.9382309,39.1325 24.3319368,38.7435 24.4486279,38.4465 C24.4486279,38.4465 22.406025,38.9025 20.0397309,38.3755 C20.0397309,38.3755 20.5034515,38.2385 20.8058338,37.7355 C20.8058338,37.7355 18.9022456,37.5745 17.7891132,35.4235" id="Fill-9" fill="#DC9FFF"/>
            <path d="M17.7891132,35.4235 C17.7891132,35.4235 19.2056426,33.7545 20.7378485,33.8015 C20.7378485,33.8015 20.336025,33.7175 19.9818926,33.3565 C19.9818926,33.3565 20.2984809,32.7265 22.9904956,32.3615 C22.9904956,32.3615 22.4334221,32.0865 22.3644221,31.8815 C22.3644221,31.8815 24.0123044,31.1955 25.2644515,31.6535 C25.2644515,31.6535 25.2654662,31.3565 24.9407603,31.1275 C24.9407603,31.1275 27.9808191,31.3455 29.3953191,33.0455 C29.3953191,33.0455 26.4232456,35.3825 22.3380397,35.9755 C22.3380397,35.9755 25.3324368,36.7545 29.7667015,34.0345 C29.7667015,34.0345 30.2283926,37.8095 26.839275,38.9965 C26.839275,38.9965 27.1173044,38.5165 27.0949809,37.9445 C27.0949809,37.9445 25.3994074,39.4535 23.9382309,39.1325 C23.9382309,39.1325 24.3319368,38.7435 24.4486279,38.4465 C24.4486279,38.4465 22.406025,38.9025 20.0397309,38.3755 C20.0397309,38.3755 20.5034515,38.2385 20.8058338,37.7355 C20.8058338,37.7355 18.9022456,37.5745 17.7891132,35.4235 Z" id="Stroke-11" stroke="#9D33DB" stroke-width="0.5" stroke-linejoin="round"/>
            <path d="M22.0837544,40.1388 C22.0837544,40.1388 22.8255044,37.9068 24.3810485,37.3478 C24.3810485,37.3478 23.9437103,37.4238 23.4414309,37.2008 C23.4414309,37.2008 23.5012985,36.4438 26.0532838,35.0158 C26.0532838,35.0158 25.3835779,34.9598 25.2303574,34.7808 C25.2303574,34.7808 26.6032544,33.4438 28.0461662,33.4078 C28.0461662,33.4078 27.9254162,33.1098 27.5073574,33.0088 C27.5073574,33.0088 30.6438132,32.0268 32.7533868,33.1718 C32.7533868,33.1718 30.723975,36.6888 26.8691074,38.8958 C26.8691074,38.8958 30.1861809,38.4948 33.5265926,34.0178 C33.5265926,34.0178 35.5245485,37.6198 32.6092985,40.1488 C32.6092985,40.1488 32.6935191,39.5568 32.4378132,38.9928 C32.4378132,38.9928 31.3520779,41.1748 29.7559456,41.4298 C29.7559456,41.4298 29.9933868,40.8848 29.9893279,40.5398 C29.9893279,40.5398 28.1263279,41.8048 25.5388279,42.2098 C25.5388279,42.2098 25.9497838,41.8888 26.0471956,41.2658 C26.0471956,41.2658 24.0735926,41.8558 22.0837544,40.1388" id="Fill-13" fill="#DC9FFF"/>
            <path d="M22.0837544,40.1388 C22.0837544,40.1388 22.8255044,37.9068 24.3810485,37.3478 C24.3810485,37.3478 23.9437103,37.4238 23.4414309,37.2008 C23.4414309,37.2008 23.5012985,36.4438 26.0532838,35.0158 C26.0532838,35.0158 25.3835779,34.9598 25.2303574,34.7808 C25.2303574,34.7808 26.6032544,33.4438 28.0461662,33.4078 C28.0461662,33.4078 27.9254162,33.1098 27.5073574,33.0088 C27.5073574,33.0088 30.6438132,32.0268 32.7533868,33.1718 C32.7533868,33.1718 30.723975,36.6888 26.8691074,38.8958 C26.8691074,38.8958 30.1861809,38.4948 33.5265926,34.0178 C33.5265926,34.0178 35.5245485,37.6198 32.6092985,40.1488 C32.6092985,40.1488 32.6935191,39.5568 32.4378132,38.9928 C32.4378132,38.9928 31.3520779,41.1748 29.7559456,41.4298 C29.7559456,41.4298 29.9933868,40.8848 29.9893279,40.5398 C29.9893279,40.5398 28.1263279,41.8048 25.5388279,42.2098 C25.5388279,42.2098 25.9497838,41.8888 26.0471956,41.2658 C26.0471956,41.2658 24.0735926,41.8558 22.0837544,40.1388 Z" id="Stroke-15" stroke="#9D33DB" stroke-width="0.5" stroke-linejoin="round"/>
            <path d="M41.6019265,29.1965 C41.8261765,28.7845 42.6795441,28.3625 43.2609706,28.1085 C43.55625,27.9795 43.8900882,28.1575 43.9489412,28.4695 C44.0625882,29.0845 44.1762353,30.0195 43.9550294,30.4295 C43.8332647,30.6535 43.5308824,30.8765 43.1889265,31.0755 C43.5846618,31.0485 43.9641618,31.0705 44.1894265,31.1875 C44.6064706,31.4035 45.0387353,32.2445 45.2924118,32.8185 C45.4202647,33.1095 45.2426912,33.4405 44.9250882,33.4955 C44.3000294,33.6035 43.3512794,33.7215 42.9332206,33.5035 C42.5151618,33.2865 42.0859412,32.4455 41.8302353,31.8725 C41.7703676,31.7395 42.2026324,31.4725 42.2584412,31.3545 C42.1458088,31.2885 41.6333824,31.3005 41.6090294,31.1565 C41.4963971,30.5405 41.3786912,29.6055 41.6019265,29.1965" id="Fill-17" fill="#BA37F8"/>
            <path d="M41.6019265,29.1965 C41.8261765,28.7845 42.6795441,28.3625 43.2609706,28.1085 C43.55625,27.9795 43.8900882,28.1575 43.9489412,28.4695 C44.0625882,29.0845 44.1762353,30.0195 43.9550294,30.4295 C43.8332647,30.6535 43.5308824,30.8765 43.1889265,31.0755 C43.5846618,31.0485 43.9641618,31.0705 44.1894265,31.1875 C44.6064706,31.4035 45.0387353,32.2445 45.2924118,32.8185 C45.4202647,33.1095 45.2426912,33.4405 44.9250882,33.4955 C44.3000294,33.6035 43.3512794,33.7215 42.9332206,33.5035 C42.5151618,33.2865 42.0859412,32.4455 41.8302353,31.8725 C41.7703676,31.7395 42.2026324,31.4725 42.2584412,31.3545 C42.1458088,31.2885 41.6333824,31.3005 41.6090294,31.1565 C41.4963971,30.5405 41.3786912,29.6055 41.6019265,29.1965 Z" id="Stroke-19" stroke="#9D33DB" stroke-width="0.5"/>
            <path d="M45.4943382,27.861 C45.6637941,27.424 46.4552647,26.897 46.9981324,26.571 C47.2741324,26.406 47.6292794,26.541 47.7266912,26.842 C47.9205,27.438 48.1559118,28.351 47.9895,28.785 C47.8991912,29.023 47.6292794,29.282 47.3147206,29.523 C47.7033529,29.446 48.0828529,29.42 48.3213088,29.507 C48.7627059,29.668 49.3015147,30.448 49.6272353,30.985 C49.7926324,31.257 49.6597059,31.608 49.3532647,31.703 C48.7474853,31.889 47.8220735,32.127 47.3766176,31.964 C46.9362353,31.801 46.3994559,31.022 46.0706912,30.486 C45.9935735,30.361 46.3882941,30.042 46.4288824,29.918 C46.3081324,29.866 45.8028088,29.943 45.7581618,29.804 C45.5663824,29.208 45.3269118,28.295 45.4943382,27.861" id="Fill-21" fill="#BA37F8"/>
            <path d="M45.4943382,27.861 C45.6637941,27.424 46.4552647,26.897 46.9981324,26.571 C47.2741324,26.406 47.6292794,26.541 47.7266912,26.842 C47.9205,27.438 48.1559118,28.351 47.9895,28.785 C47.8991912,29.023 47.6292794,29.282 47.3147206,29.523 C47.7033529,29.446 48.0828529,29.42 48.3213088,29.507 C48.7627059,29.668 49.3015147,30.448 49.6272353,30.985 C49.7926324,31.257 49.6597059,31.608 49.3532647,31.703 C48.7474853,31.889 47.8220735,32.127 47.3766176,31.964 C46.9362353,31.801 46.3994559,31.022 46.0706912,30.486 C45.9935735,30.361 46.3882941,30.042 46.4288824,29.918 C46.3081324,29.866 45.8028088,29.943 45.7581618,29.804 C45.5663824,29.208 45.3269118,28.295 45.4943382,27.861 Z" id="Stroke-23" stroke="#9D33DB" stroke-width="0.5"/>
            <path d="M49.1111559,26.0182 C49.2207441,25.5632 49.9361118,24.9392 50.4323029,24.5472 C50.6829353,24.3482 51.0522882,24.4352 51.1902882,24.7222 C51.4602,25.2882 51.8143324,26.1632 51.7067735,26.6152 C51.6479206,26.8622 51.4145382,27.1542 51.1344794,27.4332 C51.5099206,27.3072 51.8823176,27.2322 52.1309206,27.2882 C52.5895676,27.3912 53.2268029,28.0962 53.6205088,28.5862 C53.8214206,28.8342 53.7361853,29.2002 53.44395,29.3332 C52.8665824,29.5962 51.9807441,29.9502 51.5190529,29.8452 C51.0593912,29.7402 50.4241853,29.0362 50.0274353,28.5472 C49.9350971,28.4342 50.2841559,28.0662 50.3085088,27.9382 C50.1816706,27.9022 49.6895382,28.0432 49.6286559,27.9112 C49.3597588,27.3442 49.0025824,26.4702 49.1111559,26.0182" id="Fill-25" fill="#BA37F8"/>
            <path d="M49.1111559,26.0182 C49.2207441,25.5632 49.9361118,24.9392 50.4323029,24.5472 C50.6829353,24.3482 51.0522882,24.4352 51.1902882,24.7222 C51.4602,25.2882 51.8143324,26.1632 51.7067735,26.6152 C51.6479206,26.8622 51.4145382,27.1542 51.1344794,27.4332 C51.5099206,27.3072 51.8823176,27.2322 52.1309206,27.2882 C52.5895676,27.3912 53.2268029,28.0962 53.6205088,28.5862 C53.8214206,28.8342 53.7361853,29.2002 53.44395,29.3332 C52.8665824,29.5962 51.9807441,29.9502 51.5190529,29.8452 C51.0593912,29.7402 50.4241853,29.0362 50.0274353,28.5472 C49.9350971,28.4342 50.2841559,28.0662 50.3085088,27.9382 C50.1816706,27.9022 49.6895382,28.0432 49.6286559,27.9112 C49.3597588,27.3442 49.0025824,26.4702 49.1111559,26.0182 Z" id="Stroke-27" stroke="#9D33DB" stroke-width="0.5"/>
            <path d="M52.3960632,23.7302 C52.4407103,23.2652 53.0606956,22.5482 53.4960044,22.0912 C53.7161956,21.8602 54.0946809,21.8962 54.2712397,22.1612 C54.6182691,22.6842 55.0931515,23.5012 55.0515485,23.9642 C55.0282103,24.2162 54.8374456,24.5382 54.6010191,24.8532 C54.9541368,24.6762 55.3123279,24.5512 55.5660044,24.5722 C56.0358132,24.6112 56.7664015,25.2202 57.2260632,25.6522 C57.4584309,25.8702 57.426975,26.2442 57.1550338,26.4162 C56.6223132,26.7552 55.7953279,27.2282 55.3234897,27.1882 C54.8536809,27.1472 54.1251221,26.5382 53.6634309,26.1082 C53.5558721,26.0082 53.8491221,25.5962 53.8541956,25.4662 C53.7243132,25.4482 53.2575485,25.6552 53.1773868,25.5332 C52.8313721,25.0082 52.3524309,24.1922 52.3960632,23.7302" id="Fill-29" fill="#BA37F8"/>
            <path d="M52.3960632,23.7302 C52.4407103,23.2652 53.0606956,22.5482 53.4960044,22.0912 C53.7161956,21.8602 54.0946809,21.8962 54.2712397,22.1612 C54.6182691,22.6842 55.0931515,23.5012 55.0515485,23.9642 C55.0282103,24.2162 54.8374456,24.5382 54.6010191,24.8532 C54.9541368,24.6762 55.3123279,24.5512 55.5660044,24.5722 C56.0358132,24.6112 56.7664015,25.2202 57.2260632,25.6522 C57.4584309,25.8702 57.426975,26.2442 57.1550338,26.4162 C56.6223132,26.7552 55.7953279,27.2282 55.3234897,27.1882 C54.8536809,27.1472 54.1251221,26.5382 53.6634309,26.1082 C53.5558721,26.0082 53.8491221,25.5962 53.8541956,25.4662 C53.7243132,25.4482 53.2575485,25.6552 53.1773868,25.5332 C52.8313721,25.0082 52.3524309,24.1922 52.3960632,23.7302 Z" id="Stroke-31" stroke="#9D33DB" stroke-width="0.5"/>
            <path d="M55.3203441,21.0285 C55.2970059,20.5625 55.8063882,19.7645 56.1706676,19.2525 C56.3563588,18.9915 56.7358588,18.9735 56.9479324,19.2115 C57.3690353,19.6805 57.9575647,20.4225 57.9819176,20.8855 C57.9961235,21.1395 57.8540647,21.4845 57.6653294,21.8295 C57.9900353,21.6045 58.3259029,21.4305 58.5795794,21.4155 C59.0504029,21.3875 59.8621676,21.8885 60.3786529,22.2505 C60.6414618,22.4345 60.6637853,22.8085 60.4202559,23.0165 C59.9423294,23.4275 59.1914471,24.0125 58.7185941,24.0385 C58.2487853,24.0655 57.4380353,23.5635 56.9185059,23.2035 C56.7977559,23.1205 57.0291088,22.6715 57.0149029,22.5415 C56.8829912,22.5425 56.4507265,22.8135 56.3543294,22.7035 C55.9352559,22.2325 55.3436824,21.4925 55.3203441,21.0285" id="Fill-33" fill="#BA37F8"/>
            <path d="M55.3203441,21.0285 C55.2970059,20.5625 55.8063882,19.7645 56.1706676,19.2525 C56.3563588,18.9915 56.7358588,18.9735 56.9479324,19.2115 C57.3690353,19.6805 57.9575647,20.4225 57.9819176,20.8855 C57.9961235,21.1395 57.8540647,21.4845 57.6653294,21.8295 C57.9900353,21.6045 58.3259029,21.4305 58.5795794,21.4155 C59.0504029,21.3875 59.8621676,21.8885 60.3786529,22.2505 C60.6414618,22.4345 60.6637853,22.8085 60.4202559,23.0165 C59.9423294,23.4275 59.1914471,24.0125 58.7185941,24.0385 C58.2487853,24.0655 57.4380353,23.5635 56.9185059,23.2035 C56.7977559,23.1205 57.0291088,22.6715 57.0149029,22.5415 C56.8829912,22.5425 56.4507265,22.8135 56.3543294,22.7035 C55.9352559,22.2325 55.3436824,21.4925 55.3203441,21.0285 Z" id="Stroke-35" stroke="#9D33DB" stroke-width="0.5"/>
            <path d="M57.8432074,17.9469 C57.7518838,17.4879 58.1425456,16.6279 58.4286926,16.0689 C58.5737956,15.7849 58.9472074,15.7139 59.1917515,15.9199 C59.6767809,16.3249 60.3647515,16.9769 60.4570897,17.4319 C60.5068103,17.6809 60.4165015,18.0429 60.2795162,18.4099 C60.5687074,18.1419 60.8761632,17.9229 61.1247662,17.8729 C61.5854426,17.7799 62.4621485,18.1609 63.026325,18.4469 C63.3134868,18.5919 63.388575,18.9589 63.1785309,19.1989 C62.7645309,19.6739 62.1049721,20.3569 61.6412515,20.4499 C61.1795603,20.5419 60.3058985,20.1589 59.7386779,19.8749 C59.6077809,19.8099 59.7701338,19.3329 59.7386779,19.2069 C59.6077809,19.2259 59.2191485,19.5539 59.1075309,19.4599 C58.6255456,19.0519 57.9335162,18.4019 57.8432074,17.9469" id="Fill-37" fill="#BA37F8"/>
            <path d="M57.8432074,17.9469 C57.7518838,17.4879 58.1425456,16.6279 58.4286926,16.0689 C58.5737956,15.7849 58.9472074,15.7139 59.1917515,15.9199 C59.6767809,16.3249 60.3647515,16.9769 60.4570897,17.4319 C60.5068103,17.6809 60.4165015,18.0429 60.2795162,18.4099 C60.5687074,18.1419 60.8761632,17.9229 61.1247662,17.8729 C61.5854426,17.7799 62.4621485,18.1609 63.026325,18.4469 C63.3134868,18.5919 63.388575,18.9589 63.1785309,19.1989 C62.7645309,19.6739 62.1049721,20.3569 61.6412515,20.4499 C61.1795603,20.5419 60.3058985,20.1589 59.7386779,19.8749 C59.6077809,19.8099 59.7701338,19.3329 59.7386779,19.2069 C59.6077809,19.2259 59.2191485,19.5539 59.1075309,19.4599 C58.6255456,19.0519 57.9335162,18.4019 57.8432074,17.9469 Z" id="Stroke-39" stroke="#9D33DB" stroke-width="0.5"/>
            <path d="M59.9202088,14.4831 C59.7720618,14.0391 60.0500912,13.1371 60.2631794,12.5481 C60.3707382,12.2491 60.7329882,12.1321 61.0018853,12.3061 C61.5335912,12.6491 62.3007088,13.2111 62.4478412,13.6511 C62.5300324,13.8921 62.4853853,14.2621 62.3960912,14.6431 C62.6477382,14.3421 62.9267824,14.0871 63.1672676,14.0061 C63.6137382,13.8571 64.5300176,14.1281 65.1266647,14.3421 C65.4290471,14.4501 65.5508118,14.8051 65.3722235,15.0701 C65.0211353,15.5911 64.4549294,16.3511 64.0044,16.5001 C63.5589441,16.6481 62.6436794,16.3751 62.0460176,16.1641 C61.9070029,16.1141 62.0084735,15.6211 61.9607824,15.5001 C61.8339441,15.5351 61.4899588,15.9091 61.3671794,15.8281 C60.8364882,15.4831 60.0673412,14.9241 59.9202088,14.4831" id="Fill-41" fill="#BA37F8"/>
            <path d="M59.9202088,14.4831 C59.7720618,14.0391 60.0500912,13.1371 60.2631794,12.5481 C60.3707382,12.2491 60.7329882,12.1321 61.0018853,12.3061 C61.5335912,12.6491 62.3007088,13.2111 62.4478412,13.6511 C62.5300324,13.8921 62.4853853,14.2621 62.3960912,14.6431 C62.6477382,14.3421 62.9267824,14.0871 63.1672676,14.0061 C63.6137382,13.8571 64.5300176,14.1281 65.1266647,14.3421 C65.4290471,14.4501 65.5508118,14.8051 65.3722235,15.0701 C65.0211353,15.5911 64.4549294,16.3511 64.0044,16.5001 C63.5589441,16.6481 62.6436794,16.3751 62.0460176,16.1641 C61.9070029,16.1141 62.0084735,15.6211 61.9607824,15.5001 C61.8339441,15.5351 61.4899588,15.9091 61.3671794,15.8281 C60.8364882,15.4831 60.0673412,14.9241 59.9202088,14.4831 Z" id="Stroke-43" stroke="#9D33DB" stroke-width="0.5"/>
            <path d="M61.4967574,10.8088 C61.2775809,10.3938 61.4054338,9.4598 61.5190809,8.8448 C61.5779338,8.5318 61.9158309,8.3598 62.2100956,8.4888 C62.7894926,8.7428 63.6377868,9.1768 63.8559485,9.5878 C63.9756838,9.8128 63.9929338,10.1848 63.9665515,10.5758 C64.1664485,10.2388 64.3988162,9.9418 64.6230662,9.8248 C65.0390956,9.6068 65.9888603,9.7288 66.6118897,9.8468 C66.9284779,9.9058 67.1060515,10.2368 66.973125,10.5268 C66.7123456,11.0968 66.2760221,11.9348 65.8569485,12.1538 C65.4399044,12.3698 64.4921691,12.2458 63.868125,12.1318 C63.7220074,12.1048 63.7423015,11.6018 63.6753309,11.4898 C63.5555956,11.5448 63.2775662,11.9678 63.1426103,11.9078 C62.5642279,11.6518 61.7128897,11.2208 61.4967574,10.8088" id="Fill-45" fill="#BA37F8"/>
            <path d="M61.4967574,10.8088 C61.2775809,10.3938 61.4054338,9.4598 61.5190809,8.8448 C61.5779338,8.5318 61.9158309,8.3598 62.2100956,8.4888 C62.7894926,8.7428 63.6377868,9.1768 63.8559485,9.5878 C63.9756838,9.8128 63.9929338,10.1848 63.9665515,10.5758 C64.1664485,10.2388 64.3988162,9.9418 64.6230662,9.8248 C65.0390956,9.6068 65.9888603,9.7288 66.6118897,9.8468 C66.9284779,9.9058 67.1060515,10.2368 66.973125,10.5268 C66.7123456,11.0968 66.2760221,11.9348 65.8569485,12.1538 C65.4399044,12.3698 64.4921691,12.2458 63.868125,12.1318 C63.7220074,12.1048 63.7423015,11.6018 63.6753309,11.4898 C63.5555956,11.5448 63.2775662,11.9678 63.1426103,11.9078 C62.5642279,11.6518 61.7128897,11.2208 61.4967574,10.8088 Z" id="Stroke-47" stroke="#9D33DB" stroke-width="0.5"/>
            <path d="M62.5233353,6.798 C62.2524088,6.415 62.2574824,5.472 62.2909676,4.847 C62.3082176,4.53 62.6217618,4.317 62.9292176,4.407 C63.5380412,4.586 64.4360559,4.909 64.7049529,5.289 C64.8531,5.497 64.9180412,5.864 64.9434088,6.255 C65.0976441,5.895 65.2904382,5.572 65.4974382,5.427 C65.8809971,5.158 66.8388794,5.16 67.4720559,5.197 C67.7927029,5.216 68.0128941,5.522 67.9185265,5.826 C67.73385,6.424 67.4101588,7.311 67.0235559,7.581 C66.6379676,7.848 65.6811,7.845 65.0469088,7.81 C64.9007912,7.802 64.8551294,7.301 64.7739529,7.198 C64.6623353,7.268 64.4411294,7.722 64.3000853,7.68 C63.6922765,7.499 62.7932471,7.179 62.5233353,6.798" id="Fill-49" fill="#BA37F8"/>
            <path d="M62.5233353,6.798 C62.2524088,6.415 62.2574824,5.472 62.2909676,4.847 C62.3082176,4.53 62.6217618,4.317 62.9292176,4.407 C63.5380412,4.586 64.4360559,4.909 64.7049529,5.289 C64.8531,5.497 64.9180412,5.864 64.9434088,6.255 C65.0976441,5.895 65.2904382,5.572 65.4974382,5.427 C65.8809971,5.158 66.8388794,5.16 67.4720559,5.197 C67.7927029,5.216 68.0128941,5.522 67.9185265,5.826 C67.73385,6.424 67.4101588,7.311 67.0235559,7.581 C66.6379676,7.848 65.6811,7.845 65.0469088,7.81 C64.9007912,7.802 64.8551294,7.301 64.7739529,7.198 C64.6623353,7.268 64.4411294,7.722 64.3000853,7.68 C63.6922765,7.499 62.7932471,7.179 62.5233353,6.798 Z" id="Stroke-51" stroke="#9D33DB" stroke-width="0.5"/>
            <path d="M68.1319191,0.7956 C68.0568309,1.4176 67.8924485,2.3446 67.559625,2.6776 C67.2257868,3.0056 66.2851544,3.1676 65.6540074,3.2416 C65.5078897,3.2586 65.3739485,2.7736 65.2775515,2.6866 C65.179125,2.7736 65.041125,3.2586 64.8950074,3.2416 C64.2638603,3.1676 63.3232279,3.0056 62.9904044,2.6776 C62.6565662,2.3446 62.4921838,1.4176 62.4170956,0.7956 C62.3775221,0.4806 62.6484485,0.2176 62.9680809,0.2536 C63.5982132,0.3276 64.5398603,0.4896 64.8726838,0.8176 C65.0553309,0.9966 65.1831838,1.3466 65.2775515,1.7276 C65.3648162,1.3466 65.4987574,0.9966 65.6763309,0.8176 C66.0091544,0.4896 66.9508015,0.3276 67.5809338,0.2536 C67.9005662,0.2176 68.1714926,0.4806 68.1319191,0.7956" id="Fill-53" fill="#BA37F8"/>
            <path d="M68.1319191,0.7956 C68.0568309,1.4176 67.8924485,2.3446 67.559625,2.6776 C67.2257868,3.0056 66.2851544,3.1676 65.6540074,3.2416 C65.5078897,3.2586 65.3739485,2.7736 65.2775515,2.6866 C65.179125,2.7736 65.041125,3.2586 64.8950074,3.2416 C64.2638603,3.1676 63.3232279,3.0056 62.9904044,2.6776 C62.6565662,2.3446 62.4921838,1.4176 62.4170956,0.7956 C62.3775221,0.4806 62.6484485,0.2176 62.9680809,0.2536 C63.5982132,0.3276 64.5398603,0.4896 64.8726838,0.8176 C65.0553309,0.9966 65.1831838,1.3466 65.2775515,1.7276 C65.3648162,1.3466 65.4987574,0.9966 65.6763309,0.8176 C66.0091544,0.4896 66.9508015,0.3276 67.5809338,0.2536 C67.9005662,0.2176 68.1714926,0.4806 68.1319191,0.7956 Z" id="Stroke-55" stroke="#9D33DB" stroke-width="0.5"/>
            <path d="M26.7876265,29.1965 C26.5633765,28.7845 25.7089941,28.3625 25.1275676,28.1085 C24.8333029,27.9795 24.49845,28.1575 24.4406118,28.4695 C24.3269647,29.0845 24.2123029,30.0195 24.4345235,30.4295 C24.5552735,30.6535 24.8576559,30.8765 25.2006265,31.0755 C24.8048912,31.0485 24.4253912,31.0705 24.2001265,31.1875 C23.7830824,31.4035 23.3508176,32.2445 23.0971412,32.8185 C22.9682735,33.1095 23.1458471,33.4405 23.4644647,33.4955 C24.0895235,33.6035 25.0372588,33.7215 25.4563324,33.5035 C25.8733765,33.2865 26.3036118,32.4455 26.5593176,31.8725 C26.6191853,31.7395 26.1869206,31.4725 26.1311118,31.3545 C26.2437441,31.2885 26.7551559,31.3005 26.7805235,31.1565 C26.8931559,30.5405 27.0108618,29.6055 26.7876265,29.1965" id="Fill-57" fill="#BA37F8"/>
            <path d="M26.7876265,29.1965 C26.5633765,28.7845 25.7089941,28.3625 25.1275676,28.1085 C24.8333029,27.9795 24.49845,28.1575 24.4406118,28.4695 C24.3269647,29.0845 24.2123029,30.0195 24.4345235,30.4295 C24.5552735,30.6535 24.8576559,30.8765 25.2006265,31.0755 C24.8048912,31.0485 24.4253912,31.0705 24.2001265,31.1875 C23.7830824,31.4035 23.3508176,32.2445 23.0971412,32.8185 C22.9682735,33.1095 23.1458471,33.4405 23.4644647,33.4955 C24.0895235,33.6035 25.0372588,33.7215 25.4563324,33.5035 C25.8733765,33.2865 26.3036118,32.4455 26.5593176,31.8725 C26.6191853,31.7395 26.1869206,31.4725 26.1311118,31.3545 C26.2437441,31.2885 26.7551559,31.3005 26.7805235,31.1565 C26.8931559,30.5405 27.0108618,29.6055 26.7876265,29.1965 Z" id="Stroke-59" stroke="#9D33DB" stroke-width="0.5"/>
            <path d="M22.8943015,27.861 C22.7258603,27.424 21.933375,26.897 21.3915221,26.571 C21.1155221,26.406 20.760375,26.541 20.6629632,26.842 C20.4681397,27.438 20.2337426,28.351 20.3991397,28.785 C20.4904632,29.023 20.760375,29.282 21.0739191,29.523 C20.6852868,29.446 20.3068015,29.42 20.0683456,29.507 C19.6259338,29.668 19.0881397,30.448 18.7614044,30.985 C18.5960074,31.257 18.7289338,31.608 19.0363897,31.703 C19.6421691,31.889 20.5675809,32.127 21.0120221,31.964 C21.4524044,31.801 21.9891838,31.022 22.3189632,30.486 C22.3950662,30.361 22.0003456,30.042 21.9597574,29.918 C22.0815221,29.866 22.5868456,29.943 22.6314926,29.804 C22.8222574,29.208 23.0617279,28.295 22.8943015,27.861" id="Fill-61" fill="#BA37F8"/>
            <path d="M22.8943015,27.861 C22.7258603,27.424 21.933375,26.897 21.3915221,26.571 C21.1155221,26.406 20.760375,26.541 20.6629632,26.842 C20.4681397,27.438 20.2337426,28.351 20.3991397,28.785 C20.4904632,29.023 20.760375,29.282 21.0739191,29.523 C20.6852868,29.446 20.3068015,29.42 20.0683456,29.507 C19.6259338,29.668 19.0881397,30.448 18.7614044,30.985 C18.5960074,31.257 18.7289338,31.608 19.0363897,31.703 C19.6421691,31.889 20.5675809,32.127 21.0120221,31.964 C21.4524044,31.801 21.9891838,31.022 22.3189632,30.486 C22.3950662,30.361 22.0003456,30.042 21.9597574,29.918 C22.0815221,29.866 22.5868456,29.943 22.6314926,29.804 C22.8222574,29.208 23.0617279,28.295 22.8943015,27.861 Z" id="Stroke-63" stroke="#9D33DB" stroke-width="0.5"/>
            <path d="M19.2783971,26.0182 C19.1688088,25.5632 18.4534412,24.9392 17.95725,24.5472 C17.7066176,24.3482 17.33625,24.4352 17.1992647,24.7222 C16.9293529,25.2882 16.5752206,26.1632 16.6817647,26.6152 C16.7416324,26.8622 16.9750147,27.1542 17.2540588,27.4332 C16.8796324,27.3072 16.5072353,27.2322 16.2586324,27.2882 C15.7999853,27.3912 15.16275,28.0962 14.7690441,28.5862 C14.5681324,28.8342 14.6533676,29.2002 14.9456029,29.3332 C15.5229706,29.5962 16.4088088,29.9502 16.8705,29.8452 C17.3291471,29.7402 17.9643529,29.0362 18.3611029,28.5472 C18.4534412,28.4342 18.1053971,28.0662 18.0800294,27.9382 C18.2068676,27.9022 18.699,28.0432 18.7608971,27.9112 C19.0297941,27.3442 19.3869706,26.4702 19.2783971,26.0182" id="Fill-65" fill="#BA37F8"/>
            <path d="M19.2783971,26.0182 C19.1688088,25.5632 18.4534412,24.9392 17.95725,24.5472 C17.7066176,24.3482 17.33625,24.4352 17.1992647,24.7222 C16.9293529,25.2882 16.5752206,26.1632 16.6817647,26.6152 C16.7416324,26.8622 16.9750147,27.1542 17.2540588,27.4332 C16.8796324,27.3072 16.5072353,27.2322 16.2586324,27.2882 C15.7999853,27.3912 15.16275,28.0962 14.7690441,28.5862 C14.5681324,28.8342 14.6533676,29.2002 14.9456029,29.3332 C15.5229706,29.5962 16.4088088,29.9502 16.8705,29.8452 C17.3291471,29.7402 17.9643529,29.0362 18.3611029,28.5472 C18.4534412,28.4342 18.1053971,28.0662 18.0800294,27.9382 C18.2068676,27.9022 18.699,28.0432 18.7608971,27.9112 C19.0297941,27.3442 19.3869706,26.4702 19.2783971,26.0182 Z" id="Stroke-67" stroke="#9D33DB" stroke-width="0.5"/>
            <path d="M15.9925765,23.7302 C15.9489441,23.2652 15.3289588,22.5482 14.89365,22.0912 C14.6734588,21.8602 14.2949735,21.8962 14.1184147,22.1612 C13.7703706,22.6842 13.2954882,23.5012 13.3381059,23.9642 C13.3604294,24.2162 13.5522088,24.5382 13.7886353,24.8532 C13.4345029,24.6762 13.0763118,24.5512 12.82365,24.5722 C12.3538412,24.6112 11.6232529,25.2202 11.1625765,25.6522 C10.9302088,25.8702 10.9626794,26.2442 11.2336059,26.4162 C11.7663265,26.7552 12.5933118,27.2282 13.0661647,27.1882 C13.5349588,27.1472 14.2645324,26.5382 14.7262235,26.1082 C14.8337824,26.0082 14.5405324,25.5962 14.5344441,25.4662 C14.6653412,25.4482 15.1321059,25.6552 15.2122676,25.5332 C15.5582824,25.0082 16.0372235,24.1922 15.9925765,23.7302" id="Fill-69" fill="#BA37F8"/>
            <path d="M15.9925765,23.7302 C15.9489441,23.2652 15.3289588,22.5482 14.89365,22.0912 C14.6734588,21.8602 14.2949735,21.8962 14.1184147,22.1612 C13.7703706,22.6842 13.2954882,23.5012 13.3381059,23.9642 C13.3604294,24.2162 13.5522088,24.5382 13.7886353,24.8532 C13.4345029,24.6762 13.0763118,24.5512 12.82365,24.5722 C12.3538412,24.6112 11.6232529,25.2202 11.1625765,25.6522 C10.9302088,25.8702 10.9626794,26.2442 11.2336059,26.4162 C11.7663265,26.7552 12.5933118,27.2282 13.0661647,27.1882 C13.5349588,27.1472 14.2645324,26.5382 14.7262235,26.1082 C14.8337824,26.0082 14.5405324,25.5962 14.5344441,25.4662 C14.6653412,25.4482 15.1321059,25.6552 15.2122676,25.5332 C15.5582824,25.0082 16.0372235,24.1922 15.9925765,23.7302 Z" id="Stroke-71" stroke="#9D33DB" stroke-width="0.5"/>
            <path d="M13.0682956,21.0285 C13.0916338,20.5625 12.5822515,19.7645 12.2179721,19.2525 C12.0332956,18.9915 11.6527809,18.9735 11.4407074,19.2115 C11.0196044,19.6805 10.4320897,20.4225 10.4067221,20.8855 C10.3935309,21.1395 10.5355897,21.4845 10.7233103,21.8295 C10.3996191,21.6045 10.0637515,21.4305 9.80906029,21.4155 C9.33925147,21.3875 8.52748676,21.8885 8.00998676,22.2505 C7.74819265,22.4345 7.72586912,22.8085 7.96939853,23.0165 C8.447325,23.4275 9.19820735,24.0125 9.67106029,24.0385 C10.1408691,24.0655 10.9506044,23.5635 11.4711485,23.2035 C11.5908838,23.1205 11.3605456,22.6715 11.3737368,22.5415 C11.5056485,22.5425 11.9379132,22.8135 12.0343103,22.7035 C12.4543985,22.2325 13.0459721,21.4925 13.0682956,21.0285" id="Fill-73" fill="#BA37F8"/>
            <path d="M13.0682956,21.0285 C13.0916338,20.5625 12.5822515,19.7645 12.2179721,19.2525 C12.0332956,18.9915 11.6527809,18.9735 11.4407074,19.2115 C11.0196044,19.6805 10.4320897,20.4225 10.4067221,20.8855 C10.3935309,21.1395 10.5355897,21.4845 10.7233103,21.8295 C10.3996191,21.6045 10.0637515,21.4305 9.80906029,21.4155 C9.33925147,21.3875 8.52748676,21.8885 8.00998676,22.2505 C7.74819265,22.4345 7.72586912,22.8085 7.96939853,23.0165 C8.447325,23.4275 9.19820735,24.0125 9.67106029,24.0385 C10.1408691,24.0655 10.9506044,23.5635 11.4711485,23.2035 C11.5908838,23.1205 11.3605456,22.6715 11.3737368,22.5415 C11.5056485,22.5425 11.9379132,22.8135 12.0343103,22.7035 C12.4543985,22.2325 13.0459721,21.4925 13.0682956,21.0285 Z" id="Stroke-75" stroke="#9D33DB" stroke-width="0.5"/>
            <path d="M10.5464471,17.9469 C10.6367559,17.4879 10.2471088,16.6279 9.96096176,16.0689 C9.81585882,15.7849 9.44244706,15.7139 9.19688824,15.9199 C8.71287353,16.3249 8.02388824,16.9769 7.93256471,17.4319 C7.88182941,17.6809 7.97315294,18.0429 8.11013824,18.4099 C7.82094706,18.1419 7.51349118,17.9229 7.26488824,17.8729 C6.80319706,17.7799 5.92750588,18.1609 5.36332941,18.4469 C5.07616765,18.5919 5.00006471,18.9589 5.21112353,19.1989 C5.62512353,19.6739 6.28366765,20.3569 6.74840294,20.4499 C7.21009412,20.5419 8.08375588,20.1589 8.64996176,19.8749 C8.78187353,19.8099 8.61850588,19.3329 8.64996176,19.2069 C8.78085882,19.2259 9.16949118,19.5539 9.28110882,19.4599 C9.76410882,19.0519 10.4561382,18.4019 10.5464471,17.9469" id="Fill-77" fill="#BA37F8"/>
            <path d="M10.5464471,17.9469 C10.6367559,17.4879 10.2471088,16.6279 9.96096176,16.0689 C9.81585882,15.7849 9.44244706,15.7139 9.19688824,15.9199 C8.71287353,16.3249 8.02388824,16.9769 7.93256471,17.4319 C7.88182941,17.6809 7.97315294,18.0429 8.11013824,18.4099 C7.82094706,18.1419 7.51349118,17.9229 7.26488824,17.8729 C6.80319706,17.7799 5.92750588,18.1609 5.36332941,18.4469 C5.07616765,18.5919 5.00006471,18.9589 5.21112353,19.1989 C5.62512353,19.6739 6.28366765,20.3569 6.74840294,20.4499 C7.21009412,20.5419 8.08375588,20.1589 8.64996176,19.8749 C8.78187353,19.8099 8.61850588,19.3329 8.64996176,19.2069 C8.78085882,19.2259 9.16949118,19.5539 9.28110882,19.4599 C9.76410882,19.0519 10.4561382,18.4019 10.5464471,17.9469 Z" id="Stroke-79" stroke="#9D33DB" stroke-width="0.5"/>
            <path d="M8.46944559,14.4831 C8.61759265,14.0391 8.33956324,13.1371 8.126475,12.5481 C8.01790147,12.2491 7.65666618,12.1321 7.38776912,12.3061 C6.85606324,12.6491 6.08894559,13.2111 5.94079853,13.6511 C5.85962206,13.8921 5.90426912,14.2621 5.99356324,14.6431 C5.74090147,14.3421 5.46287206,14.0871 5.22238676,14.0061 C4.77591618,13.8571 3.85963676,14.1281 3.26298971,14.3421 C2.96060735,14.4501 2.83884265,14.8051 3.01743088,15.0701 C3.36851912,15.5911 3.934725,16.3511 4.38423971,16.5001 C4.83071029,16.6481 5.745975,16.3751 6.34363676,16.1641 C6.48265147,16.1141 6.38016618,15.6211 6.42785735,15.5001 C6.55571029,15.5351 6.89969559,15.9091 7.022475,15.8281 C7.55316618,15.4831 8.32129853,14.9241 8.46944559,14.4831" id="Fill-81" fill="#BA37F8"/>
            <path d="M8.46944559,14.4831 C8.61759265,14.0391 8.33956324,13.1371 8.126475,12.5481 C8.01790147,12.2491 7.65666618,12.1321 7.38776912,12.3061 C6.85606324,12.6491 6.08894559,13.2111 5.94079853,13.6511 C5.85962206,13.8921 5.90426912,14.2621 5.99356324,14.6431 C5.74090147,14.3421 5.46287206,14.0871 5.22238676,14.0061 C4.77591618,13.8571 3.85963676,14.1281 3.26298971,14.3421 C2.96060735,14.4501 2.83884265,14.8051 3.01743088,15.0701 C3.36851912,15.5911 3.934725,16.3511 4.38423971,16.5001 C4.83071029,16.6481 5.745975,16.3751 6.34363676,16.1641 C6.48265147,16.1141 6.38016618,15.6211 6.42785735,15.5001 C6.55571029,15.5351 6.89969559,15.9091 7.022475,15.8281 C7.55316618,15.4831 8.32129853,14.9241 8.46944559,14.4831 Z" id="Stroke-83" stroke="#9D33DB" stroke-width="0.5"/>
            <path d="M6.89289706,10.8088 C7.11207353,10.3938 6.98422059,9.4598 6.86955882,8.8448 C6.81172059,8.5318 6.47382353,8.3598 6.17955882,8.4888 C5.59914706,8.7428 4.75186765,9.1768 4.53269118,9.5878 C4.41397059,9.8128 4.39672059,10.1848 4.42208824,10.5758 C4.22320588,10.2388 3.99083824,9.9418 3.76557353,9.8248 C3.35055882,9.6068 2.40079412,9.7288 1.77675,9.8468 C1.46016176,9.9058 1.28360294,10.2368 1.41652941,10.5268 C1.67730882,11.0968 2.11363235,11.9348 2.53270588,12.1538 C2.94873529,12.3698 3.89748529,12.2458 4.52152941,12.1318 C4.66663235,12.1048 4.64633824,11.6018 4.71432353,11.4898 C4.83304412,11.5448 5.11107353,11.9678 5.24602941,11.9078 C5.82542647,11.6518 6.67575,11.2208 6.89289706,10.8088" id="Fill-85" fill="#BA37F8"/>
            <path d="M6.89289706,10.8088 C7.11207353,10.3938 6.98422059,9.4598 6.86955882,8.8448 C6.81172059,8.5318 6.47382353,8.3598 6.17955882,8.4888 C5.59914706,8.7428 4.75186765,9.1768 4.53269118,9.5878 C4.41397059,9.8128 4.39672059,10.1848 4.42208824,10.5758 C4.22320588,10.2388 3.99083824,9.9418 3.76557353,9.8248 C3.35055882,9.6068 2.40079412,9.7288 1.77675,9.8468 C1.46016176,9.9058 1.28360294,10.2368 1.41652941,10.5268 C1.67730882,11.0968 2.11363235,11.9348 2.53270588,12.1538 C2.94873529,12.3698 3.89748529,12.2458 4.52152941,12.1318 C4.66663235,12.1048 4.64633824,11.6018 4.71432353,11.4898 C4.83304412,11.5448 5.11107353,11.9678 5.24602941,11.9078 C5.82542647,11.6518 6.67575,11.2208 6.89289706,10.8088 Z" id="Stroke-87" stroke="#9D33DB" stroke-width="0.5"/>
            <path d="M5.86530441,6.798 C6.13623088,6.415 6.13217206,5.472 6.09767206,4.847 C6.08143676,4.53 5.76789265,4.317 5.46043676,4.407 C4.85161324,4.586 3.95359853,4.909 3.68368676,5.289 C3.53553971,5.497 3.47161324,5.864 3.44624559,6.255 C3.29201029,5.895 3.09921618,5.572 2.89221618,5.427 C2.50764265,5.158 1.550775,5.16 0.916583824,5.197 C0.595936765,5.216 0.376760294,5.522 0.471127941,5.826 C0.655804412,6.424 0.979495588,7.311 1.36609853,7.581 C1.75067206,7.848 2.70753971,7.845 3.34173088,7.81 C3.48886324,7.802 3.534525,7.301 3.61468676,7.198 C3.72731912,7.268 3.94751029,7.722 4.08956912,7.68 C4.69737794,7.499 5.59640735,7.179 5.86530441,6.798" id="Fill-89" fill="#BA37F8"/>
            <path d="M5.86530441,6.798 C6.13623088,6.415 6.13217206,5.472 6.09767206,4.847 C6.08143676,4.53 5.76789265,4.317 5.46043676,4.407 C4.85161324,4.586 3.95359853,4.909 3.68368676,5.289 C3.53553971,5.497 3.47161324,5.864 3.44624559,6.255 C3.29201029,5.895 3.09921618,5.572 2.89221618,5.427 C2.50764265,5.158 1.550775,5.16 0.916583824,5.197 C0.595936765,5.216 0.376760294,5.522 0.471127941,5.826 C0.655804412,6.424 0.979495588,7.311 1.36609853,7.581 C1.75067206,7.848 2.70753971,7.845 3.34173088,7.81 C3.48886324,7.802 3.534525,7.301 3.61468676,7.198 C3.72731912,7.268 3.94751029,7.722 4.08956912,7.68 C4.69737794,7.499 5.59640735,7.179 5.86530441,6.798 Z" id="Stroke-91" stroke="#9D33DB" stroke-width="0.5"/>
            <path d="M0.257633824,0.7956 C0.332722059,1.4176 0.497104412,2.3446 0.829927941,2.6776 C1.16376618,3.0056 2.10439853,3.1676 2.73453088,3.2416 C2.88166324,3.2586 3.01458971,2.7736 3.11200147,2.6866 C3.21042794,2.7736 3.34741324,3.2586 3.49353088,3.2416 C4.12569265,3.1676 5.066325,3.0056 5.39914853,2.6776 C5.73298676,2.3446 5.89635441,1.4176 5.97245735,0.7956 C6.01203088,0.4806 5.74110441,0.2176 5.42147206,0.2536 C4.79133971,0.3276 3.84969265,0.4896 3.51686912,0.8176 C3.33422206,0.9966 3.20535441,1.3466 3.11200147,1.7276 C3.02372206,1.3466 2.89079559,0.9966 2.71322206,0.8176 C2.38039853,0.4896 1.43875147,0.3276 0.808619118,0.2536 C0.488986765,0.2176 0.218060294,0.4806 0.257633824,0.7956" id="Fill-93" fill="#BA37F8"/>
            <path d="M0.257633824,0.7956 C0.332722059,1.4176 0.497104412,2.3446 0.829927941,2.6776 C1.16376618,3.0056 2.10439853,3.1676 2.73453088,3.2416 C2.88166324,3.2586 3.01458971,2.7736 3.11200147,2.6866 C3.21042794,2.7736 3.34741324,3.2586 3.49353088,3.2416 C4.12569265,3.1676 5.066325,3.0056 5.39914853,2.6776 C5.73298676,2.3446 5.89635441,1.4176 5.97245735,0.7956 C6.01203088,0.4806 5.74110441,0.2176 5.42147206,0.2536 C4.79133971,0.3276 3.84969265,0.4896 3.51686912,0.8176 C3.33422206,0.9966 3.20535441,1.3466 3.11200147,1.7276 C3.02372206,1.3466 2.89079559,0.9966 2.71322206,0.8176 C2.38039853,0.4896 1.43875147,0.3276 0.808619118,0.2536 C0.488986765,0.2176 0.218060294,0.4806 0.257633824,0.7956 Z" id="Stroke-95" stroke="#9D33DB" stroke-width="0.5"/>
            <path d="M3.11453824,1.7463 C3.11453824,18.6623 17.0302147,32.3753 34.1949794,32.3753 C51.3597441,32.3753 65.2744059,18.6623 65.2744059,1.7463" id="Stroke-97" stroke="#9D33DB" stroke-width="0.5"/>
            <polygon id="Fill-99" fill="#FFE680" points="40.2334941 32.3757 38.9681559 33.6367 39.4247735 35.3517 37.6875971 35.8187 37.2147441 37.5297 35.4745235 37.0797 34.1949794 38.3267 32.9154353 37.0797 31.1742 37.5297 30.7003324 35.8187 28.9651853 35.3517 29.4218029 33.6367 28.1564647 32.3757 29.4218029 31.1147 28.9651853 29.3987 30.7003324 28.9327 31.1742 27.2217 32.9154353 27.6707 34.1949794 26.4247 35.4745235 27.6707 37.2147441 27.2217 37.6875971 28.9327 39.4247735 29.3987 38.9681559 31.1147"/>
            <polygon id="Stroke-101" stroke="#FFD633" stroke-width="0.5" points="40.2334941 32.3757 38.9681559 33.6367 39.4247735 35.3517 37.6875971 35.8187 37.2147441 37.5297 35.4745235 37.0797 34.1949794 38.3267 32.9154353 37.0797 31.1742 37.5297 30.7003324 35.8187 28.9651853 35.3517 29.4218029 33.6367 28.1564647 32.3757 29.4218029 31.1147 28.9651853 29.3987 30.7003324 28.9327 31.1742 27.2217 32.9154353 27.6707 34.1949794 26.4247 35.4745235 27.6707 37.2147441 27.2217 37.6875971 28.9327 39.4247735 29.3987 38.9681559 31.1147"/>
            <polygon id="Fill-103" fill="#FFD633" points="37.0120059 32.3757 36.4224618 32.9637 36.6345353 33.7647 35.8248 33.9817 35.6035941 34.7807 34.7918294 34.5707 34.1951824 35.1527 33.5975206 34.5707 32.7847412 34.7807 32.56455 33.9817 31.7538 33.7647 31.9668882 32.9637 31.3763294 32.3757 31.9668882 31.7867 31.7538 30.9867 32.56455 30.7687 32.7857559 29.9707 33.5975206 30.1807 34.1951824 29.5987 34.7918294 30.1807 35.6035941 29.9707 35.8248 30.7697 36.63555 30.9867 36.4224618 31.7877"/>
        </g>
    </g>
</svg>
